<svg height="512pt" viewBox="0 0 512 512" width="512pt" xmlns="http://www.w3.org/2000/svg"><path d="m512 256c0 141.386719-114.613281 256-256 256s-256-114.613281-256-256 114.613281-256 256-256 256 114.613281 256 256zm0 0" fill="#fbdf65"/><path d="m512 256c0-6.503906-.246094-12.949219-.722656-19.332031l-136.542969-136.542969-18.269531 19-18.265625-19-18.265625 52.222656-36.535156-37-18.265626 19-18.269531-19-18.261719 21.777344-36.535156-37-18.265625 19-18.269531-19-18.265625 124.820312 19 18.269532-19 18.265625-18.265625 113.863281 136.652344 136.652344c.117187 0 .230468.003906.347656.003906 141.386719 0 256-114.613281 256-256zm0 0" fill="#fabe5c"/><path d="m246.867188 325.414062h18.265624v27.398438h-18.265624zm0 0" fill="#fabe5c"/><path d="m228.601562 115.347656h18.265626v44.464844h-18.265626zm0 0" fill="#637b49"/><path d="m265.132812 115.347656h18.265626v44.464844h-18.265626zm0 0" fill="#415d49"/><g fill="#203f49"><path d="m393 375.34375h-18.265625v-113.863281h-63.933594v-18.265625h82.199219zm0 0"/><path d="m356.46875 411.875h-18.269531v-113.863281h-27.398438v-18.265625h45.667969zm0 0"/><path d="m338.199219 188.414062h-82.199219v-18.265624h63.933594v-70.023438h18.265625zm0 0"/></g><path d="m137.265625 375.34375h-18.265625v-132.128906h82.199219v18.265625h-63.933594zm0 0" fill="#415d49"/><path d="m173.800781 411.875h-18.269531v-132.128906h45.667969v18.265625h-27.398438zm0 0" fill="#415d49"/><path d="m374.734375 100.125h-18.265625v106.554688h-100.46875v18.265624h118.734375zm0 0" fill="#203f49"/><path d="m155.53125 206.679688v-106.554688h-18.265625v124.820312h118.734375v-18.265624zm0 0" fill="#415d49"/><path d="m256 188.414062h-82.199219v-88.289062h18.265625v70.023438h63.933594zm0 0" fill="#415d49"/><path d="m301.667969 179.28125c0-25.183594-20.488281-45.667969-45.667969-45.667969l-24.355469 91.332031h70.019531v-45.664062zm0 0" fill="#849a49"/><path d="m210.332031 179.28125v45.664062h45.667969v-91.332031c-25.179688 0-45.667969 20.484375-45.667969 45.667969zm0 0" fill="#a5b849"/><path d="m192.066406 206.679688v63.933593c0 35.253907 28.679688 63.933594 63.933594 63.933594v-127.867187zm0 0" fill="#849a49"/><path d="m256 206.679688v127.867187c35.253906 0 63.933594-28.679687 63.933594-63.933594v-63.933593zm0 0" fill="#637b49"/><path d="m192.066406 206.679688v63.933593c0 35.253907 28.679688 63.933594 63.933594 63.933594v-127.867187zm0 0" fill="#849a49"/><path d="m256 206.679688v127.867187c35.253906 0 63.933594-28.679687 63.933594-63.933594v-63.933593zm0 0" fill="#637b49"/><path d="m256 224.945312-18.265625 45.667969 18.265625 45.667969c25.179688 0 45.667969-20.488281 45.667969-45.667969v-45.667969zm0 0" fill="#415d49"/><path d="m210.332031 224.945312v45.667969c0 25.183594 20.488281 45.667969 45.667969 45.667969v-91.332031h-45.667969zm0 0" fill="#637b49"/></svg>